<?xml version="1.0" standalone="no"?>
<!DOCTYPE svg PUBLIC "-//W3C//DTD SVG 20010904//EN"
 "http://www.w3.org/TR/2001/REC-SVG-20010904/DTD/svg10.dtd">
<svg version="1.0" xmlns="http://www.w3.org/2000/svg"
 width="260.000000pt" height="260.000000pt" viewBox="0 0 260.000000 260.000000"
 preserveAspectRatio="xMidYMid meet">
<metadata>
Created by potrace 1.11, written by Peter Selinger 2001-2013
</metadata>
<g transform="translate(0.000000,260.000000) scale(0.100000,-0.100000)"
fill="#000000" stroke="none">
<path d="M1795 2179 c-51 -141 -89 -248 -146 -408 -38 -107 -72 -197 -75 -200
-2 -3 -52 42 -109 99 l-105 105 -67 -67 -68 -67 -95 171 c-53 94 -100 171
-105 171 -6 0 -42 -58 -82 -129 -491 -887 -599 -1084 -595 -1089 3 -3 25 -5
49 -5 43 0 43 0 23 -20 -37 -37 -20 -93 35 -116 29 -12 173 -14 880 -14 893 0
904 1 921 45 4 10 20 15 50 15 27 0 44 5 44 12 0 24 -531 1493 -545 1506 -3 3
-7 -1 -10 -9z m78 -199 c36 -96 67 -195 70 -220 l6 -45 -25 29 c-14 15 -26 27
-28 25 -2 -2 -8 -40 -12 -84 l-9 -80 -42 75 c-62 111 -59 109 -78 85 -9 -11
-20 -27 -25 -35 -8 -12 -14 -10 -39 15 l-30 30 71 193 c39 106 72 191 73 190
1 -2 31 -82 68 -178z m-708 -256 l24 -40 -24 -30 -24 -29 -18 42 c-10 24 -21
43 -24 43 -4 0 -12 -13 -19 -30 -21 -52 -35 -54 -55 -10 -10 22 -21 40 -24 40
-3 -1 -19 -19 -36 -40 -16 -21 -32 -39 -35 -40 -3 0 -20 12 -37 28 l-31 27 80
143 80 143 60 -103 c32 -57 70 -121 83 -144z m283 -48 c23 -22 42 -48 42 -58
0 -24 -13 -23 -35 2 -26 28 -33 25 -46 -20 l-12 -40 -24 42 c-14 24 -26 45
-28 47 -2 2 -15 -10 -29 -25 l-25 -29 -1 27 c0 17 -6 28 -17 30 -14 3 -8 14
31 56 l49 52 26 -22 c14 -12 45 -40 69 -62z m378 -11 c27 -52 52 -95 55 -95 4
0 10 41 14 92 l7 92 29 -35 28 -34 1 30 c1 17 80 -192 188 -495 l188 -525
-262 -3 c-145 -1 -384 -1 -532 0 l-269 3 190 525 c104 289 191 527 193 529 2
3 17 -8 33 -23 l29 -28 23 31 c12 17 26 31 29 31 4 0 29 -43 56 -95z m-806
-15 c11 -22 24 -40 29 -40 4 0 16 18 26 41 l19 41 19 -39 c27 -52 25 -52 56
-14 l27 33 124 -223 c67 -123 123 -229 123 -235 0 -6 -35 -109 -78 -228 l-78
-216 -463 0 c-255 0 -464 2 -464 5 0 4 489 886 497 894 2 3 18 -10 37 -28 l34
-33 33 41 c18 23 34 41 35 41 2 0 13 -18 24 -40z m270 -70 c5 0 17 11 26 25 9
14 19 25 23 25 4 0 17 -20 29 -46 24 -49 37 -50 47 -4 9 42 23 46 54 15 l28
-26 6 23 6 23 30 -30 30 -30 -56 -157 c-32 -87 -60 -158 -63 -158 -5 0 -210
373 -210 383 0 3 8 7 18 9 12 3 18 -4 20 -24 2 -16 7 -28 12 -28z"/>
</g>
</svg>
